<svg width="29" height="26" viewBox="0 0 29 26" fill="none" xmlns="http://www.w3.org/2000/svg">
<path d="M7.2349 0.123049C8.51766 -0.0946364 9.83313 -0.0228272 11.0843 0.333184C12.3355 0.689195 13.4905 1.32033 14.4643 2.18007L14.5179 2.22771L14.5672 2.1844C15.4965 1.37212 16.589 0.766565 17.7719 0.40812C18.9548 0.0496746 20.2009 -0.0534153 21.4269 0.105727L21.7835 0.157694C23.3289 0.42346 24.7735 1.10054 25.9641 2.11723C27.1547 3.13392 28.0471 4.45238 28.5468 5.93299C29.0465 7.41359 29.1348 9.00123 28.8025 10.5278C28.4702 12.0543 27.7296 13.4629 26.6591 14.6045L26.3982 14.8715L26.3286 14.9307L15.531 25.5825C15.2818 25.8281 14.9517 25.9754 14.6018 25.9972C14.2519 26.019 13.9059 25.9137 13.628 25.7008L13.4917 25.5825L2.63176 14.8686C1.4813 13.7537 0.663109 12.3434 0.267813 10.794C-0.127484 9.24446 -0.0844638 7.61623 0.392109 6.08958C0.868683 4.56294 1.76021 3.19746 2.96796 2.14437C4.1757 1.09128 5.65254 0.391684 7.2349 0.123049Z" fill="#EA1C0F"/>
</svg>
