<svg width="19" height="20" viewBox="0 0 19 20" fill="none" xmlns="http://www.w3.org/2000/svg">
<path d="M15.937 18.937H3.06299C2.39995 18.937 1.76406 18.6736 1.29522 18.2048C0.82638 17.7359 0.562988 17.1 0.562988 16.437V3.56299C0.562988 2.89995 0.82638 2.26406 1.29522 1.79522C1.76406 1.32638 2.39995 1.06299 3.06299 1.06299H15.937C16.6 1.06299 17.2359 1.32638 17.7048 1.79522C18.1736 2.26406 18.437 2.89995 18.437 3.56299V16.437C18.437 17.1 18.1736 17.7359 17.7048 18.2048C17.2359 18.6736 16.6 18.937 15.937 18.937ZM3.06299 2.06299C2.66516 2.06299 2.28363 2.22102 2.00233 2.50233C1.72102 2.78363 1.56299 3.16516 1.56299 3.56299V16.437C1.56299 16.8348 1.72102 17.2163 2.00233 17.4976C2.28363 17.779 2.66516 17.937 3.06299 17.937H15.937C16.3348 17.937 16.7163 17.779 16.9976 17.4976C17.279 17.2163 17.437 16.8348 17.437 16.437V3.56299C17.437 3.16516 17.279 2.78363 16.9976 2.50233C16.7163 2.22102 16.3348 2.06299 15.937 2.06299H3.06299Z" fill="white" stroke="white" stroke-width="0.5"/>
<path d="M9.50016 14.5941C8.59152 14.5931 7.70358 14.3227 6.94857 13.8172C6.19357 13.3116 5.60539 12.5936 5.2584 11.7538C4.91141 10.914 4.82119 9.99022 4.99913 9.09918C5.17708 8.20814 5.6152 7.38986 6.25812 6.74778C6.90104 6.1057 7.7199 5.66864 8.61117 5.49186C9.50244 5.31508 10.4261 5.40651 11.2654 5.75459C12.1048 6.10268 12.822 6.69179 13.3266 7.44746C13.8312 8.20312 14.1004 9.09142 14.1002 10.0001C14.0986 11.219 13.6132 12.3875 12.7507 13.2489C11.8882 14.1102 10.7191 14.5941 9.50016 14.5941ZM9.50016 6.40005C8.78956 6.40104 8.0952 6.6126 7.50477 7.008C6.91434 7.40341 6.45434 7.96492 6.18286 8.62161C5.91138 9.27831 5.84061 10.0007 5.97948 10.6976C6.11836 11.3945 6.46064 12.0346 6.96311 12.5371C7.46558 13.0396 8.10569 13.3819 8.80259 13.5207C9.49948 13.6596 10.2219 13.5888 10.8786 13.3174C11.5353 13.0459 12.0968 12.5859 12.4922 11.9954C12.8876 11.405 13.0992 10.7106 13.1002 10.0001C13.1002 9.04527 12.7209 8.1296 12.0457 7.45447C11.3706 6.77934 10.4549 6.40005 9.50016 6.40005Z" fill="white" stroke="white" stroke-width="0.5"/>
<path d="M14.7 5.90488C15.2937 5.90488 15.775 5.42359 15.775 4.82988C15.775 4.23618 15.2937 3.75488 14.7 3.75488C14.1063 3.75488 13.625 4.23618 13.625 4.82988C13.625 5.42359 14.1063 5.90488 14.7 5.90488Z" fill="white"/>
</svg>
