<svg width="191" height="30" viewBox="0 0 191 30" fill="none" xmlns="http://www.w3.org/2000/svg">
<path d="M0.12 29V0.999998H12.4C14.3467 0.999998 16.12 1.42666 17.72 2.28C19.3467 3.13333 20.6267 4.32 21.56 5.84C22.52 7.36 23 9.13333 23 11.16C23 13.16 22.52 14.9333 21.56 16.48C20.6267 18 19.3467 19.2 17.72 20.08C16.12 20.9333 14.3467 21.36 12.4 21.36H7.76V29H0.12ZM7.76 15.2H11.56C12.2533 15.2 12.88 15.04 13.44 14.72C14 14.4 14.44 13.9467 14.76 13.36C15.1067 12.7467 15.28 12.0267 15.28 11.2C15.28 10.3467 15.1067 9.62667 14.76 9.04C14.44 8.42667 13.9867 7.97333 13.4 7.68C12.84 7.36 12.2267 7.2 11.56 7.2H7.76V15.2ZM22.0234 29L31.0234 4.4C31.5301 3.09333 32.3301 2.12 33.4234 1.48C34.5168 0.813331 35.7568 0.479998 37.1434 0.479998C38.5301 0.479998 39.7701 0.799998 40.8634 1.44C41.9834 2.08 42.7834 3.05333 43.2634 4.36L52.2634 29H44.0634L42.4234 23.88H31.7034L29.9834 29H22.0234ZM33.5034 17.8H40.6634L37.5834 7.68C37.5568 7.57333 37.5034 7.49333 37.4234 7.44C37.3434 7.38667 37.2501 7.36 37.1434 7.36C37.0634 7.36 36.9834 7.38667 36.9034 7.44C36.8501 7.49333 36.7968 7.57333 36.7434 7.68L33.5034 17.8ZM53.7919 29V0.999998H64.8319C67.7919 0.999998 70.3519 1.6 72.5119 2.8C74.6985 4 76.3785 5.65333 77.5519 7.76C78.7519 9.86667 79.3519 12.28 79.3519 15C79.3519 17.72 78.7519 20.1333 77.5519 22.24C76.3785 24.3467 74.6985 26 72.5119 27.2C70.3519 28.4 67.7919 29 64.8319 29H53.7919ZM61.4319 22.8H64.5119C65.8985 22.8 67.1252 22.4933 68.1919 21.88C69.2585 21.2667 70.0985 20.3733 70.7119 19.2C71.3252 18 71.6319 16.6 71.6319 15C71.6319 13.3733 71.3252 11.9867 70.7119 10.84C70.0985 9.66667 69.2585 8.77333 68.1919 8.16C67.1252 7.52 65.8985 7.2 64.5119 7.2H61.4319V22.8ZM82.5809 29V0.999998H93.6209C96.5809 0.999998 99.1409 1.6 101.301 2.8C103.488 4 105.168 5.65333 106.341 7.76C107.541 9.86667 108.141 12.28 108.141 15C108.141 17.72 107.541 20.1333 106.341 22.24C105.168 24.3467 103.488 26 101.301 27.2C99.1409 28.4 96.5809 29 93.6209 29H82.5809ZM90.2209 22.8H93.3009C94.6876 22.8 95.9143 22.4933 96.9809 21.88C98.0476 21.2667 98.8876 20.3733 99.5009 19.2C100.114 18 100.421 16.6 100.421 15C100.421 13.3733 100.114 11.9867 99.5009 10.84C98.8876 9.66667 98.0476 8.77333 96.9809 8.16C95.9143 7.52 94.6876 7.2 93.3009 7.2H90.2209V22.8ZM125.33 29.52C123.117 29.52 121.09 29.16 119.25 28.44C117.41 27.6933 115.823 26.6667 114.49 25.36C113.183 24.0267 112.157 22.48 111.41 20.72C110.69 18.96 110.33 17.0533 110.33 15C110.33 12.9467 110.69 11.04 111.41 9.28C112.157 7.49333 113.183 5.94667 114.49 4.64C115.823 3.33333 117.41 2.32 119.25 1.6C121.09 0.853331 123.117 0.479998 125.33 0.479998C127.57 0.479998 129.597 0.853331 131.41 1.6C133.25 2.32 134.837 3.33333 136.17 4.64C137.503 5.94667 138.53 7.49333 139.25 9.28C139.97 11.04 140.33 12.9467 140.33 15C140.33 17.0533 139.97 18.96 139.25 20.72C138.53 22.48 137.503 24.0267 136.17 25.36C134.837 26.6667 133.25 27.6933 131.41 28.44C129.597 29.16 127.57 29.52 125.33 29.52ZM125.33 23.2C126.423 23.2 127.41 23 128.29 22.6C129.197 22.1733 129.97 21.5867 130.61 20.84C131.277 20.0667 131.77 19.1867 132.09 18.2C132.437 17.2133 132.61 16.1467 132.61 15C132.61 13.8533 132.437 12.7867 132.09 11.8C131.77 10.7867 131.277 9.90667 130.61 9.16C129.97 8.41333 129.197 7.84 128.29 7.44C127.41 7.01333 126.423 6.8 125.33 6.8C124.263 6.8 123.277 7.01333 122.37 7.44C121.463 7.84 120.69 8.41333 120.05 9.16C119.41 9.90667 118.917 10.7867 118.57 11.8C118.223 12.7867 118.05 13.8533 118.05 15C118.05 16.1467 118.223 17.2133 118.57 18.2C118.917 19.1867 119.41 20.0667 120.05 20.84C120.69 21.5867 121.463 22.1733 122.37 22.6C123.277 23 124.263 23.2 125.33 23.2ZM157.918 29C155.518 28.9733 153.371 28.6133 151.478 27.92C149.584 27.2267 147.971 26.2533 146.638 25C145.304 23.7467 144.278 22.28 143.558 20.6C142.864 18.8933 142.518 17.0267 142.518 15C142.518 12.9733 142.864 11.12 143.558 9.44C144.278 7.73333 145.304 6.25333 146.638 5C147.971 3.74667 149.584 2.77333 151.478 2.08C153.371 1.36 155.518 0.999998 157.918 0.999998H162.198V7.2H158.158C156.904 7.2 155.784 7.4 154.798 7.8C153.838 8.2 153.024 8.76 152.358 9.48C151.691 10.1733 151.184 11 150.838 11.96C150.491 12.8933 150.318 13.9067 150.318 15C150.318 16.0933 150.491 17.12 150.838 18.08C151.184 19.0133 151.691 19.84 152.358 20.56C153.024 21.2533 153.838 21.8 154.798 22.2C155.784 22.6 156.904 22.8 158.158 22.8H162.198V29H157.918ZM165.433 29V0.999998H173.073V12.04H177.033C177.699 12.04 178.299 11.8933 178.833 11.6C179.393 11.28 179.833 10.84 180.153 10.28C180.499 9.72 180.673 9.04 180.673 8.24V0.999998H188.312V8.36C188.312 10.0667 187.899 11.6133 187.073 13C186.273 14.3867 185.193 15.52 183.833 16.4L186.553 22.16C186.686 22.4 186.859 22.5867 187.073 22.72C187.286 22.8533 187.539 22.92 187.833 22.92H190.153V29H185.912C184.339 29 183.073 28.7067 182.113 28.12C181.153 27.5333 180.419 26.7467 179.913 25.76L176.313 18.2C176.153 18.2 175.993 18.2 175.833 18.2C175.699 18.2 175.539 18.2 175.353 18.2H173.073V29H165.433Z" fill="#EF3331"/>
</svg>

