<svg width="16" height="16" viewBox="0 0 16 16" fill="none" xmlns="http://www.w3.org/2000/svg">
<path d="M15.4884 7.04233L12.3173 9.80983L13.2672 13.9301C13.3175 14.1455 13.3031 14.371 13.226 14.5783C13.1488 14.7856 13.0123 14.9655 12.8334 15.0956C12.6545 15.2257 12.4413 15.3002 12.2203 15.3098C11.9993 15.3193 11.7804 15.2635 11.591 15.1494L7.9973 12.9697L4.41136 15.1494C4.22192 15.2635 4.00303 15.3193 3.78205 15.3098C3.56107 15.3002 3.34781 15.2257 3.16894 15.0956C2.99006 14.9655 2.85351 14.7856 2.77635 14.5783C2.69919 14.371 2.68485 14.1455 2.73511 13.9301L3.68363 9.81404L0.511832 7.04233C0.344073 6.89764 0.222765 6.70664 0.163121 6.49329C0.103478 6.27993 0.108154 6.05372 0.176562 5.84301C0.244971 5.6323 0.374067 5.44648 0.547662 5.30885C0.721257 5.17122 0.931623 5.08791 1.15238 5.06936L5.33316 4.70725L6.96511 0.814747C7.05034 0.610501 7.19409 0.436036 7.37826 0.313319C7.56243 0.190603 7.7788 0.125122 8.00011 0.125122C8.22143 0.125122 8.43779 0.190603 8.62197 0.313319C8.80614 0.436036 8.94989 0.610501 9.03511 0.814747L10.672 4.70725L14.8514 5.06936C15.0721 5.08791 15.2825 5.17122 15.4561 5.30885C15.6297 5.44648 15.7588 5.6323 15.8272 5.84301C15.8956 6.05372 15.9003 6.27993 15.8406 6.49329C15.781 6.70664 15.6597 6.89764 15.4919 7.04233H15.4884Z" fill="#FFB800"/>
</svg>
