<svg width="15" height="19" viewBox="0 0 15 19" fill="none" xmlns="http://www.w3.org/2000/svg">
<path fill-rule="evenodd" clip-rule="evenodd" d="M9.5 0C9.76522 0 10.0196 0.105357 10.2071 0.292893C10.3946 0.48043 10.5 0.734784 10.5 1C10.5006 1.92192 10.8193 2.81541 11.4023 3.52959C11.9853 4.24377 12.7969 4.73488 13.7 4.92C13.9599 4.97304 14.1881 5.12716 14.3344 5.34846C14.4807 5.56975 14.533 5.84009 14.48 6.1C14.427 6.35991 14.2728 6.58811 14.0515 6.73439C13.8303 6.88066 13.5599 6.93304 13.3 6.88C12.258 6.66704 11.2915 6.18036 10.5 5.47V14C10.5 14.9889 10.2068 15.9556 9.65735 16.7779C9.10794 17.6001 8.32705 18.241 7.41342 18.6194C6.49979 18.9978 5.49446 19.0969 4.52455 18.9039C3.55465 18.711 2.66373 18.2348 1.96447 17.5355C1.26521 16.8363 0.789002 15.9454 0.596076 14.9755C0.40315 14.0055 0.502166 13.0002 0.880605 12.0866C1.25904 11.173 1.89991 10.3921 2.72215 9.84265C3.5444 9.29325 4.5111 9 5.5 9C5.76522 9 6.01957 9.10536 6.20711 9.29289C6.39465 9.48043 6.5 9.73478 6.5 10C6.5 10.2652 6.39465 10.5196 6.20711 10.7071C6.01957 10.8946 5.76522 11 5.5 11C4.90666 11 4.32664 11.1759 3.83329 11.5056C3.33994 11.8352 2.95543 12.3038 2.72836 12.8519C2.5013 13.4001 2.44189 14.0033 2.55765 14.5853C2.6734 15.1672 2.95912 15.7018 3.37868 16.1213C3.79824 16.5409 4.33279 16.8266 4.91473 16.9424C5.49667 17.0581 6.09987 16.9987 6.64805 16.7716C7.19623 16.5446 7.66477 16.1601 7.99441 15.6667C8.32406 15.1734 8.5 14.5933 8.5 14V1C8.5 0.734784 8.60536 0.48043 8.7929 0.292893C8.98043 0.105357 9.23479 0 9.5 0Z" fill="white"/>
</svg>
